<svg xmlns="http://www.w3.org/2000/svg" viewBox="0 0 400 300" width="406" height="306" class="illustration styles_illustrationTablet__1DWOa"><g id="_298_new_message_outline" data-name="#298_new_message_outline"><path d="M294.46,150A94.46,94.46,0,1,1,200,55.54,94,94,0,0,1,294.46,150Z" fill="#fff"></path><path d="M200,245.46a95.24,95.24,0,0,1-75.61-37.2A94.45,94.45,0,0,1,104.54,150a95.46,95.46,0,1,1,190.92,0,94.45,94.45,0,0,1-19.85,58.26A95.24,95.24,0,0,1,200,245.46Zm0-188.92A93.57,93.57,0,0,0,106.54,150,92.51,92.51,0,0,0,126,207,93.4,93.4,0,0,0,274,207a92.51,92.51,0,0,0,19.43-57A93.57,93.57,0,0,0,200,56.54Z" fill="#093f68"></path><path d="M199.6,195.49s-4.23,4.26-9.19,9.57c-7,7.47-15.36,17-15.36,19.71v16.36a94.52,94.52,0,0,1-49.87-33.48c.46-7.28,1.44-14.13,3.33-18.85,2.91-7.28,13.41-15.4,23.85-22,1.9-1.2,3.79-2.36,5.63-3.44,9.94-5.88,18.49-9.92,18.49-9.92l7.68,14Z" fill="#ffc9b0"></path><path d="M175.05,242.13a.75.75,0,0,1-.26,0,96,96,0,0,1-50.4-33.83,1,1,0,0,1-.21-.67c.53-8.41,1.68-14.85,3.4-19.16,2.52-6.31,10.68-13.89,24.24-22.51,2-1.27,3.92-2.44,5.66-3.46,9.87-5.84,18.49-9.92,18.57-10a1,1,0,0,1,1.31.42L200.48,195a1,1,0,0,1-.17,1.19s-4.28,4.31-9.17,9.54c-14,15-15.09,18.37-15.09,19v16.36a1,1,0,0,1-.39.79A1,1,0,0,1,175.05,242.13ZM126.2,207.34a94.06,94.06,0,0,0,47.85,32.47v-15c0-1,0-3.62,15.63-20.39,3.91-4.19,7.4-7.75,8.68-9.06l-22.3-40.61c-2.4,1.17-9.56,4.74-17.56,9.47-1.73,1-3.62,2.17-5.61,3.43-13,8.27-21.12,15.73-23.45,21.56C127.82,193.22,126.73,199.33,126.2,207.34Z" fill="#093f68"></path><path d="M274.82,207.65A94.52,94.52,0,0,1,225,241.13V224.77c0-2.67-8.4-12.24-15.36-19.71-5-5.31-9.19-9.57-9.19-9.57l15.44-28.11,7.68-14s8.55,4,18.49,9.92c1.84,1.08,3.73,2.24,5.63,3.44,10.44,6.64,20.94,14.76,23.85,22C273.38,193.52,274.36,200.37,274.82,207.65Z" fill="#ffc9b0"></path><path d="M225,242.13a1,1,0,0,1-.61-.21,1,1,0,0,1-.39-.79V224.77c0-.66-1.09-4-15.09-19-4.89-5.23-9.13-9.5-9.17-9.54a1,1,0,0,1-.17-1.19l23.12-42.09a1,1,0,0,1,1.31-.42c.08,0,8.7,4.12,18.57,10,1.75,1,3.65,2.19,5.65,3.45,13.57,8.63,21.73,16.21,24.25,22.52,1.72,4.31,2.87,10.75,3.4,19.16a1,1,0,0,1-.21.67,96,96,0,0,1-50.4,33.83A.75.75,0,0,1,225,242.13Zm-23.31-46.81c1.28,1.31,4.77,4.87,8.68,9.06C226,221.15,226,223.78,226,224.77v15a94.06,94.06,0,0,0,47.85-32.47c-.53-8-1.62-14.12-3.24-18.17-2.33-5.83-10.44-13.29-23.46-21.57-2-1.25-3.86-2.4-5.6-3.42-8-4.73-15.17-8.3-17.56-9.47Z" fill="#093f68"></path><rect x="157.99" y="80.66" width="84.03" height="145.47" rx="7.64" fill="#08A98C"></rect><path d="M234.38,227.13H165.62a8.65,8.65,0,0,1-8.63-8.64V88.3a8.65,8.65,0,0,1,8.63-8.64h68.76A8.65,8.65,0,0,1,243,88.3V218.49A8.65,8.65,0,0,1,234.38,227.13ZM165.62,81.66A6.64,6.64,0,0,0,159,88.3V218.49a6.64,6.64,0,0,0,6.63,6.64h68.76a6.64,6.64,0,0,0,6.63-6.64V88.3a6.64,6.64,0,0,0-6.63-6.64Z" fill="#093f68"></path><path d="M199.52,221.48a6.14,6.14,0,1,1,6.14-6.14A6.15,6.15,0,0,1,199.52,221.48Zm0-10.28a4.14,4.14,0,1,0,4.14,4.14A4.13,4.13,0,0,0,199.52,211.2Z" fill="#093f68"></path><rect x="157.99" y="91.78" width="84.03" height="113.28" fill="#093f68"></rect><path d="M242,206.06H158a1,1,0,0,1-1-1V91.78a1,1,0,0,1,1-1h84a1,1,0,0,1,1,1V205.06A1,1,0,0,1,242,206.06Zm-83-2h82V92.78H159Z" fill="#093f68"></path><path d="M195.82,87.41h-1.71a1,1,0,0,1,0-2h1.71a1,1,0,0,1,0,2Z" fill="#093f68"></path><path d="M205.89,87.41h-7.71a1,1,0,0,1,0-2h7.71a1,1,0,0,1,0,2Z" fill="#093f68"></path><rect x="150.13" y="107.22" width="99.75" height="60.16" rx="4.51" fill="#fff"></rect><path d="M245.37,168.38H154.63a5.51,5.51,0,0,1-5.5-5.5V111.73a5.51,5.51,0,0,1,5.5-5.51h90.74a5.51,5.51,0,0,1,5.5,5.51v51.15A5.51,5.51,0,0,1,245.37,168.38Zm-90.74-60.16a3.51,3.51,0,0,0-3.5,3.51v51.15a3.5,3.5,0,0,0,3.5,3.5h90.74a3.5,3.5,0,0,0,3.5-3.5V111.73a3.51,3.51,0,0,0-3.5-3.51Z" fill="#093f68"></path><path d="M200,145.05a1,1,0,0,1-.59-.19l-48.34-35.7a1,1,0,0,1,1.19-1.61L200,142.81l47.74-35.26a1,1,0,0,1,1.19,1.61l-48.34,35.7A1,1,0,0,1,200,145.05Z" fill="#093f68"></path><path d="M248.34,167.24a1,1,0,0,1-.59-.19l-39.08-29a1,1,0,1,1,1.2-1.6l39.07,29a1,1,0,0,1-.6,1.8Z" fill="#093f68"></path><path d="M151.66,167.24a1,1,0,0,1-.81-.4,1,1,0,0,1,.21-1.4l39.07-29a1,1,0,0,1,1.2,1.6l-39.08,29A1,1,0,0,1,151.66,167.24Z" fill="#093f68"></path><circle cx="155.94" cy="116.11" r="15.41" fill="#f56132"></circle><path d="M155.94,132.53a16.42,16.42,0,1,1,16.41-16.42A16.44,16.44,0,0,1,155.94,132.53Zm0-30.83a14.42,14.42,0,1,0,14.41,14.41A14.43,14.43,0,0,0,155.94,101.7Z" fill="#093f68"></path><path d="M155,107.9l-1.82,1.54-3,2.54-.58.49.58.67,1.41,1.62,3.32-2.92v12.64h3.38V107.9Z" fill="#fff"></path><path d="M158.24,107.9v16.58h-3.38V111.84l-3.32,2.92-1.41-1.62-.58-.67.58-.49,3-2.54L155,107.9h3.28m0-2H155a2,2,0,0,0-1.29.47l-1.82,1.54-3,2.54-.58.49a2,2,0,0,0-.7,1.37,2,2,0,0,0,.48,1.47l.58.67,1.41,1.62a2,2,0,0,0,1.38.69h.13a2,2,0,0,0,1.32-.5v8.22a2,2,0,0,0,2,2h3.38a2,2,0,0,0,2-2V107.9a2,2,0,0,0-2-2Z" fill="#093f68"></path><path d="M262.39,211s-29.78-34-37-33.24-12,7.06-9.05,14.36,27.13,29.79,27.13,29.79a28.11,28.11,0,0,0-10.66,14.81" fill="#ffc9b0"></path><path d="M232.85,237.71a1,1,0,0,1-.28,0,1,1,0,0,1-.68-1.24,29.16,29.16,0,0,1,10.05-14.64c-4.48-4.21-23.8-22.61-26.49-29.31a11.17,11.17,0,0,1,.54-10.09,12.23,12.23,0,0,1,9.32-5.64h.31c7.9,0,34.48,30.12,37.53,33.6a1,1,0,0,1-1.51,1.31c-11.38-13-31.24-33.41-36.1-32.91a10.22,10.22,0,0,0-7.83,4.68,9.23,9.23,0,0,0-.4,8.32c2.81,7,26.64,29.2,26.88,29.43a1,1,0,0,1,.32.82,1,1,0,0,1-.46.75A27.32,27.32,0,0,0,233.81,237,1,1,0,0,1,232.85,237.71Z" fill="#093f68"></path><path d="M137.61,211s29.78-34,37-33.24,12,7.06,9.05,14.36-27.13,29.79-27.13,29.79a28.11,28.11,0,0,1,10.66,14.81" fill="#ffc9b0"></path><path d="M167.15,237.71a1,1,0,0,1-1-.72A27.32,27.32,0,0,0,156,222.74a1,1,0,0,1-.46-.75,1,1,0,0,1,.32-.82c.24-.23,24.07-22.42,26.88-29.43a9.23,9.23,0,0,0-.4-8.32,10.22,10.22,0,0,0-7.83-4.68c-4.87-.53-24.72,19.9-36.1,32.91a1,1,0,0,1-1.51-1.31c3.09-3.53,30.34-34.41,37.84-33.59a12.23,12.23,0,0,1,9.32,5.64,11.17,11.17,0,0,1,.54,10.09c-2.69,6.7-22,25.1-26.49,29.31a29.16,29.16,0,0,1,10.05,14.64,1,1,0,0,1-.68,1.24A1,1,0,0,1,167.15,237.71Z" fill="#093f68"></path><path d="M135.84,107.28a1.13,1.13,0,0,1-.36-.06l-11.67-4.53a1,1,0,0,1,.72-1.87l11.67,4.53a1,1,0,0,1-.36,1.93Z" fill="#dfeaef"></path><path d="M124.17,165.52a1,1,0,0,1-.36-1.93l11.67-4.53a1,1,0,0,1,.72,1.87l-11.67,4.53A1.13,1.13,0,0,1,124.17,165.52Z" fill="#dfeaef"></path><path d="M134.12,134.14H120.83a1,1,0,1,1,0-2h13.29a1,1,0,0,1,0,2Z" fill="#dfeaef"></path><path d="M264.16,107.28a1,1,0,0,1-.36-1.93l11.67-4.53a1,1,0,0,1,.72,1.87l-11.67,4.53A1.13,1.13,0,0,1,264.16,107.28Z" fill="#dfeaef"></path><path d="M275.83,165.52a1.13,1.13,0,0,1-.36-.06l-11.67-4.53a1,1,0,0,1,.72-1.87l11.67,4.53a1,1,0,0,1-.36,1.93Z" fill="#dfeaef"></path><path d="M279.17,134.14H265.88a1,1,0,0,1,0-2h13.29a1,1,0,0,1,0,2Z" fill="#dfeaef"></path></g></svg>