<svg width="1412" height="248" viewBox="0 0 1412 248" fill="none" xmlns="http://www.w3.org/2000/svg">
<path d="M252.551 105.577L273.884 102.188L225.729 160.612L208.236 160.612C208.236 160.612 233.248 129.572 235.673 126.564C238.097 123.556 252.551 105.577 252.551 105.577Z" fill="black"/>
<path d="M265.262 117.33L275.309 105.386L320.881 159.58H301.863L265.262 117.33Z" fill="black"/>
<path d="M195.802 0L36 179.693H62.9795L224.857 0H195.802Z" fill="#FFD700"/>
<path d="M144.185 182.693H84L245.877 3H308.138L144.185 182.693Z" fill="black"/>
<path d="M173.513 205.906C81.8983 238.11 19.6648 211.157 0 193.654C10.4108 237.41 93.8553 263.93 173.513 237.41C217.826 222.657 285.096 208.316 416.432 226.909C373.632 206.489 265.128 173.702 173.513 205.906Z" fill="#00A86B"/>
<path d="M290.932 159.58H233.887L241.81 149.597H283.009L290.932 159.58Z" fill="black"/>
<path d="M373.289 152.926C374.614 152.353 376.154 151.977 377.908 151.798C380.451 151.511 382.348 150.903 383.602 149.972C384.568 148.002 385.052 142.989 385.052 134.933V126.446L385.159 121.344L385.052 117.584L385.159 110.655L384.998 93.1992C384.998 91.2298 384.712 89.9408 384.139 89.332C383.315 88.4368 381.131 87.6133 377.586 86.8613C376.118 86.5391 375.223 86.2526 374.9 86.002C374.578 85.7155 374.381 85.1963 374.31 84.4443C375.133 84.2653 375.706 84.1758 376.028 84.1758H379.842L381.829 84.1221C383.154 84.1221 384.622 84.2653 386.233 84.5518C389.528 84.7666 392.911 84.874 396.385 84.874C397.387 84.874 398.82 84.8203 400.682 84.7129C405.623 84.4264 409.168 84.2832 411.316 84.2832C415.649 84.2832 419.731 84.7129 423.562 85.5723C427.43 86.4316 431.404 88.0251 435.486 90.3525C438.029 91.8206 440.625 94.1481 443.274 97.335C445.96 100.486 447.983 103.941 449.344 107.701C450.74 111.425 451.438 115.632 451.438 120.323C451.438 124.513 450.669 128.666 449.129 132.784C447.625 136.902 445.512 140.483 442.791 143.526C440.07 146.534 437.312 148.808 434.52 150.348C431.727 151.852 427.465 153.159 421.736 154.269C419.373 154.698 415.13 154.913 409.007 154.913C404.961 154.913 401.666 154.788 399.124 154.537C398.121 154.394 397.047 154.322 395.901 154.322C395.722 154.322 395.525 154.34 395.311 154.376L373.396 154.752L373.289 154.322C373.217 154.143 373.182 153.946 373.182 153.731L373.289 152.926ZM400.628 150.831C403.349 151.762 406.106 152.228 408.899 152.228C412.516 152.228 416.061 151.673 419.534 150.562C423.007 149.417 426.069 147.823 428.719 145.782C431.404 143.705 433.606 141.378 435.325 138.8C437.044 136.186 438.261 133.84 438.978 131.764C439.98 128.72 440.481 124.763 440.481 119.894C440.481 115.239 439.497 110.512 437.527 105.714C436.167 102.384 433.768 99.1969 430.33 96.1533C426.928 93.1097 422.9 90.8896 418.245 89.4932C413.59 88.0609 408.559 87.3447 403.152 87.3447C399.428 87.3447 396.671 87.7565 394.881 88.5801C394.666 88.7949 394.451 89.0456 394.236 89.332C394.021 90.2272 393.914 91.0508 393.914 91.8027C393.914 92.2682 393.932 92.8232 393.968 93.4678C394.075 97.6214 394.129 100.951 394.129 103.458L394.075 115.65C394.075 133.554 394.397 143.526 395.042 145.567C395.722 147.573 397.584 149.327 400.628 150.831ZM462.61 110.709L462.342 108.238C464.633 107.128 466.424 106.036 467.713 104.962C469.002 103.888 470.345 102.115 471.741 99.6445C472.243 98.7852 472.493 97.89 472.493 96.959C472.493 95.849 472.207 94.9359 471.634 94.2197C471.061 93.5036 470.488 93.1455 469.915 93.1455L466.531 93.3066C465.6 93.3066 464.705 92.877 463.846 92.0176C463.022 91.1224 462.61 90.1019 462.61 88.9561C462.61 87.667 463.058 86.6465 463.953 85.8945C465.421 84.6413 466.836 84.0146 468.196 84.0146C470.918 84.0146 473.245 84.9635 475.179 86.8613C477.148 88.7591 478.133 91.015 478.133 93.6289C478.133 97.9258 476.128 101.829 472.117 105.338C468.143 108.847 464.974 110.637 462.61 110.709ZM507.835 152.281C508.336 151.995 508.784 151.852 509.178 151.852H510.413C510.664 151.852 511.093 151.834 511.702 151.798C514.459 151.547 516.089 151.297 516.59 151.046C517.843 150.366 518.917 149.184 519.812 147.501C521.674 143.849 523.769 138.674 526.097 131.979C527.207 128.792 527.905 126.858 528.191 126.178C529.087 124.029 529.946 121.773 530.77 119.41L535.818 105.284C536.606 103.064 538.504 97.9795 541.512 90.0303C542.264 88.0251 543.177 85.3395 544.251 81.9736L545.809 81.8662L547.688 81.9199C549.228 84.9635 550.589 88.2399 551.771 91.749C552.415 93.611 553.471 96.3861 554.939 100.074L563.104 122.149L567.454 134.127C569.746 140.93 571.25 145.12 571.966 146.695C572.682 148.235 573.344 149.256 573.953 149.757C574.132 149.9 574.795 150.115 575.94 150.401C577.122 150.688 577.946 150.903 578.411 151.046C580.058 151.511 581.204 151.905 581.849 152.228C581.992 152.621 582.063 152.926 582.063 153.141C582.063 153.32 582.01 153.588 581.902 153.946C580.757 153.982 579.951 154 579.485 154C577.659 154 574.437 153.946 569.817 153.839L564.446 153.678L557.947 153.785C557.518 153.785 557.07 153.767 556.604 153.731C556.175 153.66 555.799 153.624 555.477 153.624H554.295C553.901 153.588 553.543 153.481 553.221 153.302C553.221 152.8 553.31 152.317 553.489 151.852C553.919 151.637 554.313 151.511 554.671 151.476L560.311 151.1C561.779 151.028 562.889 150.831 563.641 150.509C563.855 149.864 563.963 149.381 563.963 149.059C563.963 148.414 563.497 146.749 562.566 144.063C561.922 142.273 561.349 140.572 560.848 138.961C560.382 137.35 558.484 132.05 555.154 123.062C553.686 122.812 552.397 122.687 551.287 122.687L539.793 122.794L536.409 122.74C535.192 122.74 533.849 122.83 532.381 123.009C531.915 124.083 531.611 124.853 531.468 125.318L526.741 140.089C524.736 145.711 523.733 148.808 523.733 149.381C523.733 149.703 523.895 150.24 524.217 150.992C524.969 151.207 525.971 151.404 527.225 151.583L534.529 152.228C534.923 152.55 535.12 152.836 535.12 153.087C535.12 153.266 535.066 153.535 534.959 153.893C533.348 153.928 532.112 153.946 531.253 153.946C528.388 153.946 525.058 153.857 521.263 153.678C519.508 153.606 518.255 153.57 517.503 153.57C516.751 153.57 515.444 153.606 513.582 153.678C512.365 153.749 511.487 153.785 510.95 153.785C510.091 153.785 508.981 153.731 507.62 153.624V153.302C507.62 153.051 507.692 152.711 507.835 152.281ZM533.455 120.055C537.286 120.27 541.655 120.377 546.561 120.377C549.354 120.377 551.806 120.287 553.919 120.108C553.561 118.712 553.149 117.405 552.684 116.188C550.356 109.957 549.067 106.52 548.816 105.875L543.929 93.4678L543.392 92.501C543.177 92.9307 542.389 94.7747 541.028 98.0332C538.737 103.619 537.09 107.97 536.087 111.085C535.621 112.481 535.138 113.878 534.637 115.274C534.135 116.635 533.813 117.602 533.67 118.175C533.562 118.712 533.383 119.267 533.133 119.84L533.455 120.055ZM585.877 154L585.77 152.442C586.056 152.228 586.325 152.102 586.575 152.066C586.826 151.995 587.721 151.905 589.261 151.798C590.836 151.69 591.821 151.35 592.215 150.777C592.609 150.169 592.806 147.716 592.806 143.419L592.913 122.203L592.806 118.443C592.806 118.121 592.841 116.922 592.913 114.845C592.985 113.878 593.021 112.714 593.021 111.354L592.806 102.008L592.859 93.8438C592.859 91.8743 592.573 90.6211 592 90.084C591.463 89.5111 589.511 88.9919 586.146 88.5264V87.8818C586.146 87.667 586.163 87.3626 586.199 86.9688C588.24 86.5391 590.049 86.002 591.624 85.3574C592.448 84.9993 594.542 83.8893 597.908 82.0273H599.573C599.537 82.8509 599.52 83.3522 599.52 83.5312V88.2041L599.466 90.5137L599.627 94.7568L599.573 101.148L599.627 111.783L599.466 124.996V129.078C599.466 129.579 599.484 130.278 599.52 131.173L600.11 131.227C601.328 131.227 602.563 130.779 603.816 129.884C609.438 125.873 612.965 123.152 614.397 121.72C615.83 120.252 616.546 119.195 616.546 118.551C616.546 118.157 616.313 117.656 615.848 117.047C614.773 116.474 613.574 116.08 612.249 115.865C611.855 115.794 611.425 115.704 610.96 115.597C610.315 115.418 609.778 115.292 609.349 115.221L609.241 114.684C609.241 114.433 609.331 114.075 609.51 113.609C615.167 113.395 620.091 113.287 624.28 113.287C626.644 113.287 629.168 113.341 631.854 113.448V114.146C631.854 114.397 631.764 114.719 631.585 115.113C631.048 115.221 630.206 115.382 629.061 115.597C626.84 115.955 625.158 116.456 624.012 117.101C621.255 118.569 618.408 120.628 615.472 123.277C613.717 124.853 612.195 126.178 610.906 127.252L608.973 128.917C609.116 129.168 609.349 129.472 609.671 129.83C609.814 129.973 610.101 130.296 610.53 130.797C610.96 131.298 611.73 132.14 612.84 133.321C616.707 137.403 619.572 140.554 621.434 142.774C622.042 143.491 622.723 144.278 623.475 145.138C626.268 148.253 627.897 149.99 628.362 150.348C629.365 150.992 630.851 151.493 632.82 151.852C633.751 152.031 634.557 152.192 635.237 152.335C635.381 152.765 635.452 153.105 635.452 153.355L635.398 153.893C632.856 153.678 631.03 153.57 629.92 153.57H628.953L614.021 154C613.449 154.072 613.055 154.107 612.84 154.107C612.482 154.107 612.106 154.036 611.712 153.893C611.604 153.606 611.551 153.355 611.551 153.141V152.765C611.766 152.442 611.963 152.245 612.142 152.174C615.687 151.887 617.745 151.655 618.318 151.476C618.641 151.404 618.945 151.207 619.231 150.885C619.231 150.276 618.712 149.291 617.674 147.931C616.635 146.57 614.039 143.58 609.886 138.961C607.236 136.025 605.517 134.324 604.729 133.858C603.978 133.357 602.921 133.106 601.561 133.106H599.52C599.376 134.396 599.305 137.35 599.305 141.969C599.305 146.266 599.663 149.023 600.379 150.24C600.773 150.921 601.704 151.35 603.172 151.529C604.64 151.708 605.589 151.977 606.019 152.335C606.305 152.55 606.484 153.051 606.556 153.839C604.407 153.803 602.599 153.785 601.131 153.785C598.768 153.785 596.189 153.839 593.396 153.946C591.714 154.018 590.389 154.054 589.422 154.054C588.706 154.054 587.524 154.036 585.877 154ZM642.327 140.357C643.652 143.759 644.655 145.961 645.335 146.964C646.696 149.005 648.325 150.598 650.223 151.744C652.12 152.854 654.179 153.409 656.399 153.409C658.44 153.409 660.464 152.532 662.469 150.777C663.901 149.452 664.617 147.913 664.617 146.158C664.617 143.831 663.776 141.682 662.093 139.713C660.41 137.779 657.205 135.935 652.479 134.181C647.788 132.39 644.637 130.493 643.025 128.487C641.414 126.482 640.608 124.19 640.608 121.612C640.608 119.177 641.271 117.029 642.596 115.167C643.921 113.305 645.747 111.909 648.074 110.978C650.402 110.011 652.55 109.527 654.52 109.527C657.062 109.527 659.336 109.724 661.341 110.118C663.382 110.512 665.136 111.121 666.604 111.944C666.891 113.771 667.124 116.456 667.303 120.001L667.41 121.72C666.945 121.756 666.551 121.773 666.229 121.773H665.477C664.402 118.801 662.755 116.456 660.535 114.737C658.351 112.983 656.185 112.105 654.036 112.105C651.888 112.105 650.151 112.768 648.826 114.093C647.501 115.382 646.839 117.083 646.839 119.195C646.839 120.807 647.376 122.239 648.45 123.492C649.524 124.745 652.031 126.178 655.97 127.789C659.944 129.4 662.827 130.904 664.617 132.301C666.443 133.661 667.786 135.326 668.646 137.296C669.505 139.265 669.935 141.145 669.935 142.936C669.935 145.406 669.111 147.716 667.464 149.864C665.853 152.013 663.812 153.517 661.341 154.376C658.906 155.271 656.722 155.719 654.788 155.719C650.241 155.719 646.051 154.877 642.22 153.194C641.862 152.908 641.665 152.371 641.629 151.583C641.629 151.261 641.593 150.742 641.521 150.025C640.949 145.191 640.662 142.327 640.662 141.432C640.662 141.002 640.752 140.715 640.931 140.572C641.11 140.429 641.575 140.357 642.327 140.357ZM676.756 152.711C680.945 151.959 683.362 151.386 684.007 150.992C684.401 150.742 684.598 150.169 684.598 149.273L684.544 145.729L684.598 139.444L684.49 123.438L684.544 117.477V113.233L684.705 108.023C684.705 99.8594 684.616 94.9896 684.437 93.4141C684.293 91.8027 683.989 90.8001 683.523 90.4062C682.664 89.5827 680.301 88.7233 676.434 87.8281V87.5596C676.434 87.3089 676.469 86.9508 676.541 86.4854C677.042 86.4137 677.526 86.3242 677.991 86.2168C678.457 86.1094 678.904 86.0378 679.334 86.002C683.595 84.7845 686.692 83.6029 688.626 82.457H691.258C691.329 83.4596 691.365 86.6286 691.365 91.9639L691.312 98.7852L691.365 107.594L691.15 118.443C691.15 119.088 691.186 119.804 691.258 120.592C693.514 117.978 695.161 116.241 696.199 115.382C698.061 113.878 700.049 112.696 702.161 111.837C704.274 110.942 706.494 110.494 708.821 110.494C713.226 110.494 716.824 112.356 719.617 116.08C721.229 118.264 722.034 121.362 722.034 125.372L721.873 130.851L721.927 133.912L721.712 139.229C721.569 143.634 721.497 146.248 721.497 147.071C721.497 148.002 721.533 149.256 721.604 150.831L724.666 151.529C726.707 151.959 728.283 152.353 729.393 152.711L729.339 154.376L717.898 154.054C717.254 154.054 715.499 154.125 712.635 154.269C710.88 154.34 709.86 154.376 709.573 154.376H708.392C708.213 154.054 708.123 153.785 708.123 153.57V153.087C708.624 152.442 709.555 152.013 710.916 151.798L714.139 151.046C714.568 150.688 714.819 150.312 714.891 149.918C715.034 148.987 715.195 144.368 715.374 136.061L715.481 132.086C715.625 127.896 715.302 124.423 714.515 121.666C714.013 119.768 712.868 118.264 711.077 117.154C709.323 116.008 707.282 115.436 704.954 115.436C703.021 115.436 701.194 115.847 699.476 116.671C698.294 117.28 696.88 118.336 695.232 119.84C693.585 121.344 692.439 122.633 691.795 123.707C691.365 124.423 691.15 125.605 691.15 127.252L691.204 131.012L691.097 134.933C691.097 135.255 691.15 137.493 691.258 141.646L691.204 145.084L691.312 148.844C691.347 149.381 691.401 149.775 691.473 150.025L699.046 151.852C699.44 151.959 700.031 152.174 700.818 152.496L700.979 153.087C700.979 153.266 700.89 153.552 700.711 153.946C699.673 153.982 698.885 154 698.348 154L694.158 153.946L684.92 154.054L677.991 154.269C677.633 154.233 677.096 154.197 676.38 154.161L676.326 153.785C676.326 153.499 676.469 153.141 676.756 152.711ZM774.563 146.695C774.778 147.161 774.886 147.501 774.886 147.716C774.886 148.253 774.456 149.202 773.597 150.562C772.487 152.353 771.251 153.66 769.891 154.483C769.031 155.021 767.85 155.289 766.346 155.289C763.768 155.289 761.834 154.501 760.545 152.926C759.757 151.995 759.202 150.33 758.88 147.931L752.864 152.12C750.752 153.338 749.14 154.107 748.03 154.43C746.24 154.895 744.091 155.128 741.585 155.128C739.759 155.128 738.309 154.591 737.234 153.517C736.196 152.407 735.677 150.992 735.677 149.273C735.677 146.803 737.181 143.849 740.188 140.411C743.232 136.974 747.35 134.163 752.542 131.979C756.194 130.439 758.432 129.454 759.256 129.024C759.327 127.843 759.363 126.554 759.363 125.157C759.363 120.61 758.719 117.53 757.43 115.919C756.176 114.308 754.368 113.502 752.005 113.502C749.534 113.502 747.225 114.469 745.076 116.402C743.751 117.62 742.749 119.911 742.068 123.277C741.854 124.208 741.442 125.211 740.833 126.285C739.293 127.288 738.058 127.789 737.127 127.789C736.339 127.789 735.623 127.556 734.979 127.091C734.62 126.84 734.441 126.554 734.441 126.231C734.441 125.3 735.426 123.206 737.396 119.947C739.401 116.653 741.907 114.2 744.915 112.589C747.959 110.942 750.608 110.118 752.864 110.118C755.944 110.118 758.235 110.405 759.739 110.978C761.243 111.515 762.568 112.481 763.714 113.878C764.86 115.274 765.558 116.796 765.809 118.443C765.952 119.231 766.023 122.042 766.023 126.876L765.862 135.416L765.916 141.646C765.916 142.47 765.898 143.168 765.862 143.741C765.826 144.78 765.809 145.549 765.809 146.051C765.809 147.232 766.149 148.181 766.829 148.897C767.509 149.614 768.315 149.972 769.246 149.972C770.607 149.972 771.771 149.291 772.737 147.931L773.382 147.071C773.561 146.964 773.955 146.839 774.563 146.695ZM758.772 145.138C759.023 140.59 759.148 137.385 759.148 135.523C759.148 134.557 759.095 133.25 758.987 131.603C756.588 132.462 754.046 133.769 751.36 135.523C748.675 137.278 746.544 139.301 744.969 141.593C743.823 143.24 743.25 144.798 743.25 146.266C743.25 147.662 743.715 148.826 744.646 149.757C745.613 150.688 746.813 151.153 748.245 151.153C749.355 151.153 750.698 150.759 752.273 149.972C754.35 148.933 756.517 147.322 758.772 145.138ZM774.725 111.676C775.512 111.604 776.175 111.568 776.712 111.568H779.29L782.781 111.461L787.347 111.622L791.053 111.515C793.022 111.515 794.795 111.64 796.37 111.891C796.513 112.249 796.585 112.535 796.585 112.75L796.531 113.18C795.779 113.538 794.616 113.788 793.04 113.932C790.82 114.111 789.227 114.505 788.26 115.113L788.152 115.704C788.152 116.062 788.296 116.599 788.582 117.315C788.761 117.745 788.994 118.39 789.28 119.249C790.068 121.899 791.769 127.019 794.383 134.61C796.281 140.089 798.035 144.798 799.646 148.736C800.649 146.588 801.795 143.867 803.084 140.572L807.649 127.843C808.652 125.05 809.422 122.257 809.959 119.464C810.174 118.354 810.281 117.477 810.281 116.832C810.281 116.295 810.049 115.794 809.583 115.328C809.118 114.863 808.187 114.469 806.79 114.146C804.248 113.502 802.869 113.108 802.654 112.965C802.439 112.786 802.314 112.428 802.278 111.891C802.493 111.712 802.744 111.568 803.03 111.461H806.36L809.959 111.515L815.33 111.461L818.768 111.515L819.627 111.461C819.878 111.461 820.289 111.497 820.862 111.568C821.22 111.747 821.399 112.034 821.399 112.428C821.399 112.786 821.238 113.108 820.916 113.395L819.842 113.556C817.765 113.842 816.172 114.379 815.062 115.167C814.453 115.597 813.934 116.492 813.504 117.853C813.361 118.354 813.128 118.998 812.806 119.786C812.627 120.216 812.358 120.932 812 121.935C811.678 122.937 811.248 124.119 810.711 125.479L810.066 126.983L810.013 127.252L800.882 151.314L794.222 169.415C793.792 170.31 793.291 171.42 792.718 172.745C791.357 175.287 790.551 176.684 790.301 176.935C789.227 178.259 788.296 179.19 787.508 179.728L784.769 180.909C784.231 181.052 783.659 181.124 783.05 181.124C781.438 181.124 780.257 180.766 779.505 180.05C778.753 179.369 778.377 178.421 778.377 177.203C778.377 176.057 778.932 175.019 780.042 174.088C780.4 173.98 780.758 173.837 781.116 173.658L781.814 173.497C785.001 174.07 786.989 174.356 787.776 174.356C788.528 173.963 789.083 173.497 789.441 172.96C791.196 170.346 792.7 167.428 793.953 164.205C795.206 160.982 795.833 158.816 795.833 157.706C795.833 156.489 795.368 154.716 794.437 152.389L788.475 136.598C787.651 134.557 785.198 127.896 781.116 116.617C780.866 115.901 780.543 115.364 780.149 115.006L776.497 113.663L775.369 113.448C774.76 113.198 774.456 112.84 774.456 112.374L774.725 111.676ZM863.616 146.695C863.831 147.161 863.938 147.501 863.938 147.716C863.938 148.253 863.509 149.202 862.649 150.562C861.539 152.353 860.304 153.66 858.943 154.483C858.084 155.021 856.902 155.289 855.398 155.289C852.82 155.289 850.887 154.501 849.598 152.926C848.81 151.995 848.255 150.33 847.933 147.931L841.917 152.12C839.804 153.338 838.193 154.107 837.083 154.43C835.293 154.895 833.144 155.128 830.638 155.128C828.812 155.128 827.361 154.591 826.287 153.517C825.249 152.407 824.729 150.992 824.729 149.273C824.729 146.803 826.233 143.849 829.241 140.411C832.285 136.974 836.403 134.163 841.595 131.979C845.247 130.439 847.485 129.454 848.309 129.024C848.38 127.843 848.416 126.554 848.416 125.157C848.416 120.61 847.771 117.53 846.482 115.919C845.229 114.308 843.421 113.502 841.058 113.502C838.587 113.502 836.277 114.469 834.129 116.402C832.804 117.62 831.801 119.911 831.121 123.277C830.906 124.208 830.494 125.211 829.886 126.285C828.346 127.288 827.111 127.789 826.18 127.789C825.392 127.789 824.676 127.556 824.031 127.091C823.673 126.84 823.494 126.554 823.494 126.231C823.494 125.3 824.479 123.206 826.448 119.947C828.453 116.653 830.96 114.2 833.968 112.589C837.011 110.942 839.661 110.118 841.917 110.118C844.996 110.118 847.288 110.405 848.792 110.978C850.296 111.515 851.621 112.481 852.767 113.878C853.912 115.274 854.611 116.796 854.861 118.443C855.005 119.231 855.076 122.042 855.076 126.876L854.915 135.416L854.969 141.646C854.969 142.47 854.951 143.168 854.915 143.741C854.879 144.78 854.861 145.549 854.861 146.051C854.861 147.232 855.201 148.181 855.882 148.897C856.562 149.614 857.368 149.972 858.299 149.972C859.66 149.972 860.823 149.291 861.79 147.931L862.435 147.071C862.614 146.964 863.007 146.839 863.616 146.695ZM847.825 145.138C848.076 140.59 848.201 137.385 848.201 135.523C848.201 134.557 848.147 133.25 848.04 131.603C845.641 132.462 843.099 133.769 840.413 135.523C837.728 137.278 835.597 139.301 834.021 141.593C832.876 143.24 832.303 144.798 832.303 146.266C832.303 147.662 832.768 148.826 833.699 149.757C834.666 150.688 835.866 151.153 837.298 151.153C838.408 151.153 839.751 150.759 841.326 149.972C843.403 148.933 845.569 147.322 847.825 145.138ZM895.145 152.389C900.372 151.78 903.326 151.35 904.007 151.1C904.472 150.921 904.902 150.383 905.296 149.488V148.897C905.296 148.002 905.439 144.762 905.726 139.176C905.797 137.6 905.833 136.061 905.833 134.557L905.672 128.165L905.779 120.914L905.726 107.433L905.779 97.7646C905.815 93.6826 905.493 91.194 904.812 90.2988C904.168 89.4036 902.467 88.777 899.71 88.4189C896.953 88.0251 895.431 87.7386 895.145 87.5596C894.858 87.3805 894.715 87.0941 894.715 86.7002C894.715 86.4495 894.769 86.1273 894.876 85.7334C895.234 85.4111 896.058 85.2321 897.347 85.1963C897.526 85.1963 898.009 85.1605 898.797 85.0889C899.62 84.9814 900.39 84.9277 901.106 84.9277H905.511L919.637 84.7666C927.622 84.7666 933.208 85.3574 936.395 86.5391C939.617 87.7207 942.177 89.7259 944.075 92.5547C945.973 95.3477 946.922 98.4808 946.922 101.954C946.922 108.543 943.466 113.574 936.556 117.047C935.374 117.656 934.443 118.193 933.763 118.658C934.98 121.236 936.681 124.334 938.865 127.95L945.687 139.659C948.408 143.956 950.288 146.66 951.326 147.77C952.365 148.844 953.618 149.739 955.086 150.455C956.59 151.171 959.096 151.852 962.605 152.496C962.641 152.854 962.659 153.141 962.659 153.355C962.659 153.57 962.641 153.839 962.605 154.161C957.7 154.233 951.953 154.269 945.364 154.269C944.899 154.269 944.254 154.233 943.431 154.161C940.888 149.291 937.898 143.938 934.461 138.102L926.512 123.6C925.438 122.096 924.542 121.165 923.826 120.807C923.146 120.413 922.233 120.216 921.087 120.216L916.521 120.27L915.018 120.216C914.91 121.362 914.856 123.707 914.856 127.252V145.621C914.821 146.301 914.964 147.25 915.286 148.468C915.573 149.148 916.056 149.703 916.736 150.133C917.452 150.527 919.476 151.135 922.806 151.959L925.008 152.496C925.294 152.854 925.438 153.338 925.438 153.946C924.471 154.125 923.79 154.215 923.396 154.215C920.174 154.215 917.9 154.179 916.575 154.107C915.895 154.072 915.34 154.054 914.91 154.054L907.605 154.161L900.462 154.107C900.14 154.107 898.51 154.161 895.574 154.269L894.5 154.054L894.393 153.517C894.393 153.194 894.643 152.818 895.145 152.389ZM915.125 117.262C916.092 117.298 916.808 117.315 917.273 117.315C919.852 117.315 922.824 117.011 926.189 116.402C928.553 115.937 930.468 115.185 931.937 114.146C933.405 113.072 934.622 111.497 935.589 109.42C936.591 107.343 937.093 105.195 937.093 102.975C937.093 100.54 936.323 97.9616 934.783 95.2402C933.602 93.1634 931.596 91.4268 928.768 90.0303C925.975 88.6338 922.609 87.9355 918.67 87.9355C917.703 87.9355 916.45 87.9893 914.91 88.0967C914.767 89.9587 914.695 91.391 914.695 92.3936L914.964 102.438L914.91 106.573C914.91 109.366 914.982 112.929 915.125 117.262ZM1000.63 125.641L979.095 125.802H975.013C973.366 125.802 971.683 125.873 969.964 126.017C969.642 127.091 969.48 127.825 969.48 128.219L969.534 128.756V129.293L969.48 131.925C969.48 134.109 970.161 136.795 971.521 139.981C972.918 143.132 974.887 145.549 977.43 147.232C980.008 148.88 983.213 149.757 987.044 149.864C989.085 149.757 990.714 149.506 991.932 149.112C993.149 148.718 994.868 147.805 997.088 146.373L1000.96 143.204L1001.28 145.353C1001.28 145.603 1001.26 145.872 1001.22 146.158C999.612 148.199 997.571 149.99 995.101 151.529C992.63 153.069 990.123 154.197 987.581 154.913C986.364 155.235 984.358 155.396 981.565 155.396C979.023 155.396 976.517 154.877 974.046 153.839C970.394 152.263 967.511 149.739 965.398 146.266C963.322 142.757 962.283 138.513 962.283 133.536C962.283 131.961 962.57 129.938 963.143 127.467C963.751 124.996 964.826 122.364 966.365 119.571C967.404 117.674 968.675 116.116 970.179 114.898C972.327 113.18 974.207 111.98 975.818 111.3C978.146 110.333 980.849 109.85 983.929 109.85C987.259 109.85 989.98 110.458 992.093 111.676C994.957 113.287 997.088 115.364 998.484 117.906C999.917 120.449 1000.63 122.776 1000.63 124.889V125.641ZM970.662 123.707H973.187C975.013 123.707 980.455 123.421 989.515 122.848C990.947 122.776 991.824 122.633 992.146 122.418C992.791 121.738 993.113 121.129 993.113 120.592C993.113 119.482 992.755 118.229 992.039 116.832C991.323 115.4 990.213 114.308 988.709 113.556C987.241 112.768 985.522 112.374 983.553 112.374C979.399 112.374 976.069 113.932 973.562 117.047C971.629 119.41 970.662 121.63 970.662 123.707ZM1011.75 140.357C1013.08 143.759 1014.08 145.961 1014.76 146.964C1016.12 149.005 1017.75 150.598 1019.65 151.744C1021.54 152.854 1023.6 153.409 1025.82 153.409C1027.86 153.409 1029.89 152.532 1031.89 150.777C1033.32 149.452 1034.04 147.913 1034.04 146.158C1034.04 143.831 1033.2 141.682 1031.52 139.713C1029.83 137.779 1026.63 135.935 1021.9 134.181C1017.21 132.39 1014.06 130.493 1012.45 128.487C1010.84 126.482 1010.03 124.19 1010.03 121.612C1010.03 119.177 1010.69 117.029 1012.02 115.167C1013.34 113.305 1015.17 111.909 1017.5 110.978C1019.83 110.011 1021.97 109.527 1023.94 109.527C1026.49 109.527 1028.76 109.724 1030.76 110.118C1032.81 110.512 1034.56 111.121 1036.03 111.944C1036.31 113.771 1036.55 116.456 1036.73 120.001L1036.83 121.72C1036.37 121.756 1035.97 121.773 1035.65 121.773H1034.9C1033.83 118.801 1032.18 116.456 1029.96 114.737C1027.77 112.983 1025.61 112.105 1023.46 112.105C1021.31 112.105 1019.57 112.768 1018.25 114.093C1016.93 115.382 1016.26 117.083 1016.26 119.195C1016.26 120.807 1016.8 122.239 1017.87 123.492C1018.95 124.745 1021.45 126.178 1025.39 127.789C1029.37 129.4 1032.25 130.904 1034.04 132.301C1035.87 133.661 1037.21 135.326 1038.07 137.296C1038.93 139.265 1039.36 141.145 1039.36 142.936C1039.36 145.406 1038.53 147.716 1036.89 149.864C1035.28 152.013 1033.24 153.517 1030.76 154.376C1028.33 155.271 1026.15 155.719 1024.21 155.719C1019.66 155.719 1015.47 154.877 1011.64 153.194C1011.29 152.908 1011.09 152.371 1011.05 151.583C1011.05 151.261 1011.02 150.742 1010.95 150.025C1010.37 145.191 1010.09 142.327 1010.09 141.432C1010.09 141.002 1010.18 140.715 1010.35 140.572C1010.53 140.429 1011 140.357 1011.75 140.357ZM1051.77 87.9893C1051.77 86.8076 1052.21 85.7871 1053.11 84.9277C1054.04 84.0684 1055.15 83.6387 1056.44 83.6387C1057.76 83.6387 1058.93 84.1221 1059.93 85.0889C1060.93 86.0557 1061.43 87.0941 1061.43 88.2041C1061.43 89.3141 1060.93 90.3704 1059.93 91.373C1058.93 92.3398 1057.76 92.8232 1056.44 92.8232C1055.11 92.8232 1054 92.3757 1053.11 91.4805C1052.21 90.5853 1051.77 89.4215 1051.77 87.9893ZM1047.25 115.812L1047.31 114.254C1049.64 113.574 1050.89 113.18 1051.07 113.072C1052.36 112.499 1053.7 111.622 1055.1 110.44C1056.53 109.259 1057.73 107.934 1058.69 106.466C1059.12 106.394 1059.46 106.358 1059.71 106.358L1060.36 106.412C1060.5 108.131 1060.57 109.384 1060.57 110.172C1060.57 110.351 1060.54 111.157 1060.47 112.589V115.436L1060.52 130.904L1060.36 147.286C1060.32 148.611 1060.54 149.542 1061 150.079C1061.47 150.58 1062.85 151.153 1065.14 151.798C1066.57 152.192 1067.65 152.532 1068.36 152.818C1068.47 153.069 1068.52 153.284 1068.52 153.463C1068.52 153.678 1068.43 153.946 1068.25 154.269C1066.86 154.233 1065.07 154.143 1062.88 154C1059.91 153.749 1057.94 153.624 1056.98 153.624C1056.51 153.624 1053.65 153.714 1048.38 153.893C1047.31 153.928 1046.27 154.018 1045.27 154.161C1045.09 154.161 1044.8 154.107 1044.41 154C1044.23 153.749 1044.14 153.535 1044.14 153.355C1044.14 152.854 1044.48 152.46 1045.16 152.174C1045.3 152.102 1047.13 151.69 1050.64 150.938C1051.78 150.724 1052.54 150.366 1052.89 149.864C1053.5 149.112 1053.81 147.913 1053.81 146.266C1053.88 143.508 1053.91 135.953 1053.91 123.6C1053.91 121.129 1053.81 119.589 1053.59 118.98C1053.41 118.551 1052.93 118.067 1052.14 117.53C1051.39 116.957 1049.76 116.384 1047.25 115.812ZM1108.59 115.006L1108.65 113.448L1108.59 107.164L1108.65 95.2939C1108.65 91.9997 1108.29 89.9049 1107.57 89.0098C1106.86 88.1146 1104.76 87.2015 1101.29 86.2705C1101.04 86.1989 1100.64 86.0915 1100.11 85.9482V85.3574C1100.11 84.9993 1100.14 84.6055 1100.21 84.1758C1105.08 83.6745 1109.27 82.833 1112.78 81.6514L1115.52 81.5977C1115.66 84.0326 1115.74 86.7539 1115.74 89.7617L1115.52 110.44L1115.9 133.751L1115.74 146.158C1115.74 148.701 1115.91 150.133 1116.27 150.455C1116.99 151.171 1118.56 151.547 1121 151.583C1121.5 151.583 1122.18 151.619 1123.04 151.69V152.657C1123.04 152.908 1123.02 153.176 1122.99 153.463C1121.88 153.714 1120.73 153.946 1119.55 154.161L1111.76 155.665C1110.61 155.88 1109.7 155.987 1109.02 155.987V150.831C1108.41 151.01 1107.46 151.368 1106.17 151.905C1100.59 154.269 1095.45 155.45 1090.76 155.45C1087.93 155.45 1085.05 154.537 1082.11 152.711C1079.18 150.849 1076.92 148.271 1075.34 144.977C1073.77 141.682 1072.98 138.316 1072.98 134.879C1072.98 131.799 1073.5 128.863 1074.54 126.07C1075.58 123.242 1076.94 120.896 1078.62 119.034C1079.7 117.817 1081.22 116.617 1083.19 115.436C1085.16 114.218 1086.79 113.448 1088.07 113.126C1091.26 112.302 1093.39 111.891 1094.47 111.891C1099.3 111.891 1103.27 112.607 1106.39 114.039C1107.36 114.505 1108.09 114.827 1108.59 115.006ZM1108.65 148.199C1108.79 145.8 1108.86 140.859 1108.86 133.375C1108.86 127.037 1108.56 123.045 1107.95 121.397C1107.37 119.715 1105.91 118.139 1103.54 116.671C1101.18 115.167 1098.53 114.415 1095.59 114.415C1091.48 114.415 1087.98 116.008 1085.12 119.195C1082.26 122.382 1080.82 127.091 1080.82 133.321C1080.82 138.8 1082.36 143.168 1085.44 146.427C1088.56 149.685 1092.42 151.314 1097.04 151.314C1099.69 151.314 1102.11 150.956 1104.29 150.24C1106.48 149.524 1107.93 148.844 1108.65 148.199ZM1166.92 125.641L1145.38 125.802H1141.3C1139.65 125.802 1137.97 125.873 1136.25 126.017C1135.93 127.091 1135.77 127.825 1135.77 128.219L1135.82 128.756V129.293L1135.77 131.925C1135.77 134.109 1136.45 136.795 1137.81 139.981C1139.21 143.132 1141.18 145.549 1143.72 147.232C1146.3 148.88 1149.5 149.757 1153.33 149.864C1155.37 149.757 1157 149.506 1158.22 149.112C1159.44 148.718 1161.16 147.805 1163.38 146.373L1167.24 143.204L1167.57 145.353C1167.57 145.603 1167.55 145.872 1167.51 146.158C1165.9 148.199 1163.86 149.99 1161.39 151.529C1158.92 153.069 1156.41 154.197 1153.87 154.913C1152.65 155.235 1150.65 155.396 1147.85 155.396C1145.31 155.396 1142.81 154.877 1140.33 153.839C1136.68 152.263 1133.8 149.739 1131.69 146.266C1129.61 142.757 1128.57 138.513 1128.57 133.536C1128.57 131.961 1128.86 129.938 1129.43 127.467C1130.04 124.996 1131.11 122.364 1132.65 119.571C1133.69 117.674 1134.96 116.116 1136.47 114.898C1138.62 113.18 1140.5 111.98 1142.11 111.3C1144.43 110.333 1147.14 109.85 1150.22 109.85C1153.55 109.85 1156.27 110.458 1158.38 111.676C1161.25 113.287 1163.38 115.364 1164.77 117.906C1166.21 120.449 1166.92 122.776 1166.92 124.889V125.641ZM1136.95 123.707H1139.48C1141.3 123.707 1146.74 123.421 1155.8 122.848C1157.24 122.776 1158.11 122.633 1158.44 122.418C1159.08 121.738 1159.4 121.129 1159.4 120.592C1159.4 119.482 1159.04 118.229 1158.33 116.832C1157.61 115.4 1156.5 114.308 1155 113.556C1153.53 112.768 1151.81 112.374 1149.84 112.374C1145.69 112.374 1142.36 113.932 1139.85 117.047C1137.92 119.41 1136.95 121.63 1136.95 123.707ZM1172.29 152.281C1173.19 152.031 1174.23 151.816 1175.41 151.637C1177.66 151.314 1179.01 150.938 1179.44 150.509C1179.9 150.079 1180.13 149.094 1180.13 147.555L1180.24 145.621C1180.28 144.905 1180.3 143.992 1180.3 142.882L1180.19 126.393C1180.19 124.173 1179.9 122.74 1179.33 122.096C1178.36 121.093 1176.57 120.395 1173.96 120.001V118.067C1176.57 117.351 1178.58 116.42 1179.97 115.274C1182.01 113.663 1183.73 111.479 1185.13 108.722L1186.96 108.775C1187.06 110.458 1187.12 111.658 1187.12 112.374V115.919L1187.17 116.886C1187.6 116.599 1188.1 116.241 1188.67 115.812C1190.82 114.2 1193.03 112.893 1195.28 111.891C1197.54 110.852 1199.54 110.136 1201.3 109.742C1202.41 109.456 1203.66 109.312 1205.06 109.312C1207.99 109.312 1210.52 110.1 1212.63 111.676C1214.74 113.251 1216.1 115.113 1216.71 117.262C1217.36 119.374 1217.68 123.6 1217.68 129.938V138.048C1217.68 138.263 1217.64 138.979 1217.57 140.196C1217.54 141.414 1217.52 142.81 1217.52 144.386C1217.52 146.892 1217.62 148.486 1217.84 149.166C1218.02 149.632 1218.48 150.097 1219.24 150.562C1222.67 151.028 1224.68 151.583 1225.25 152.228V152.657C1225.25 153.015 1225.14 153.463 1224.93 154H1223.91L1216.82 153.946L1209.84 154.054C1207.26 154.125 1204.88 154.107 1202.69 154L1202.37 152.872C1202.37 152.657 1202.5 152.371 1202.75 152.013C1203.71 151.583 1205.07 151.297 1206.83 151.153C1207.87 151.082 1208.58 150.974 1208.98 150.831C1209.37 150.688 1209.85 150.401 1210.43 149.972C1210.86 149.112 1211.07 148.396 1211.07 147.823C1211.07 147.573 1211.04 147.071 1210.96 146.319C1210.86 144.672 1210.79 140.572 1210.75 134.02V131.227L1210.86 126.93C1210.86 122.311 1209.93 119.124 1208.06 117.369C1206.2 115.615 1203.71 114.737 1200.6 114.737C1198.2 114.737 1195.85 115.274 1193.56 116.349C1191.27 117.387 1189.05 118.963 1186.9 121.075C1186.83 122.794 1186.79 124.262 1186.79 125.479L1186.96 137.35C1186.96 143.544 1187.05 147.34 1187.22 148.736C1187.3 149.309 1187.42 149.703 1187.6 149.918C1187.89 150.204 1188.46 150.437 1189.32 150.616C1190.18 150.795 1191.16 151.046 1192.27 151.368C1193.42 151.69 1194.17 151.887 1194.53 151.959C1195.25 152.138 1195.73 152.496 1195.98 153.033L1195.93 154.107H1190.29L1178.68 153.946C1176 154.018 1174.3 154.054 1173.58 154.054H1172.24L1172.13 153.355C1172.13 153.105 1172.19 152.747 1172.29 152.281ZM1269.35 144.171L1269.4 147.662C1266.61 150.634 1263.85 152.711 1261.13 153.893C1258.41 155.074 1255.2 155.665 1251.52 155.665C1247.51 155.665 1243.89 154.627 1240.67 152.55C1237.44 150.437 1234.96 147.465 1233.2 143.634C1231.48 139.802 1230.62 136.043 1230.62 132.354C1230.62 128.308 1231.66 124.495 1233.74 120.914C1235.85 117.298 1238.63 114.612 1242.06 112.857C1245.54 111.067 1249.89 110.172 1255.12 110.172C1260.13 110.172 1263.94 111.031 1266.56 112.75C1268.02 113.753 1268.76 115.042 1268.76 116.617C1268.76 117.763 1268.38 118.712 1267.63 119.464C1266.88 120.216 1265.91 120.592 1264.73 120.592C1262.94 120.592 1260.97 119.482 1258.82 117.262C1257.5 115.901 1256.3 114.97 1255.22 114.469C1254.15 113.932 1252.95 113.663 1251.62 113.663C1248.44 113.663 1245.79 114.97 1243.67 117.584C1240.74 121.308 1239.27 125.981 1239.27 131.603C1239.27 137.403 1240.77 142.022 1243.78 145.46C1246.79 148.897 1250.3 150.616 1254.31 150.616C1257.1 150.616 1259.57 150.169 1261.72 149.273C1263.91 148.342 1266.45 146.642 1269.35 144.171ZM1314.84 125.641L1293.3 125.802H1289.22C1287.57 125.802 1285.89 125.873 1284.17 126.017C1283.85 127.091 1283.69 127.825 1283.69 128.219L1283.74 128.756V129.293L1283.69 131.925C1283.69 134.109 1284.37 136.795 1285.73 139.981C1287.13 143.132 1289.1 145.549 1291.64 147.232C1294.22 148.88 1297.42 149.757 1301.25 149.864C1303.29 149.757 1304.92 149.506 1306.14 149.112C1307.36 148.718 1309.08 147.805 1311.3 146.373L1315.16 143.204L1315.49 145.353C1315.49 145.603 1315.47 145.872 1315.43 146.158C1313.82 148.199 1311.78 149.99 1309.31 151.529C1306.84 153.069 1304.33 154.197 1301.79 154.913C1300.57 155.235 1298.57 155.396 1295.77 155.396C1293.23 155.396 1290.73 154.877 1288.25 153.839C1284.6 152.263 1281.72 149.739 1279.61 146.266C1277.53 142.757 1276.49 138.513 1276.49 133.536C1276.49 131.961 1276.78 129.938 1277.35 127.467C1277.96 124.996 1279.03 122.364 1280.57 119.571C1281.61 117.674 1282.88 116.116 1284.39 114.898C1286.54 113.18 1288.42 111.98 1290.03 111.3C1292.35 110.333 1295.06 109.85 1298.14 109.85C1301.47 109.85 1304.19 110.458 1306.3 111.676C1309.17 113.287 1311.3 115.364 1312.69 117.906C1314.13 120.449 1314.84 122.776 1314.84 124.889V125.641ZM1284.87 123.707H1287.4C1289.22 123.707 1294.66 123.421 1303.72 122.848C1305.16 122.776 1306.03 122.633 1306.36 122.418C1307 121.738 1307.32 121.129 1307.32 120.592C1307.32 119.482 1306.96 118.229 1306.25 116.832C1305.53 115.4 1304.42 114.308 1302.92 113.556C1301.45 112.768 1299.73 112.374 1297.76 112.374C1293.61 112.374 1290.28 113.932 1287.77 117.047C1285.84 119.41 1284.87 121.63 1284.87 123.707Z" fill="black"/>
</svg>
