<?xml version="1.0" standalone="no"?>
<!DOCTYPE svg PUBLIC "-//W3C//DTD SVG 20010904//EN"
 "http://www.w3.org/TR/2001/REC-SVG-20010904/DTD/svg10.dtd">
<svg version="1.0" xmlns="http://www.w3.org/2000/svg"
 width="1080.000000pt" height="1080.000000pt" viewBox="0 0 1080.000000 1080.000000"
 preserveAspectRatio="xMidYMid meet">
<metadata>
Created by potrace 1.14, written by Peter Selinger 2001-2017
</metadata>
<g transform="translate(0.000000,1080.000000) scale(0.100000,-0.100000)"
fill="#000000" stroke="none">
<path d="M3268 10495 c-2 -2 -19 -5 -38 -8 -151 -20 -325 -111 -444 -230 -121
-121 -148 -173 -280 -537 -59 -162 -150 -412 -202 -555 -52 -143 -109 -298
-126 -345 -49 -136 -99 -273 -108 -295 -9 -24 -1 -2 -266 -730 -114 -313 -215
-592 -224 -620 -20 -56 -381 -1048 -497 -1365 -41 -113 -83 -227 -93 -255 -97
-282 -387 -1058 -418 -1120 -62 -123 -86 -219 -86 -355 -1 -139 5 -185 38
-282 85 -255 296 -460 547 -532 31 -9 67 -20 80 -24 13 -3 436 -8 938 -9 503
-2 917 -5 919 -7 2 -2 -27 -87 -63 -188 -104 -285 -134 -367 -165 -453 -51
-144 -90 -250 -99 -270 -5 -11 -19 -47 -30 -80 -10 -33 -58 -166 -106 -295
-48 -129 -88 -239 -89 -245 -1 -5 -15 -44 -30 -85 -15 -41 -41 -109 -56 -150
-46 -123 -62 -199 -66 -310 -13 -420 272 -771 686 -849 87 -16 273 -6 360 19
177 51 348 167 444 304 65 92 90 141 141 282 26 71 61 165 77 209 29 81 83
229 98 275 5 14 149 408 320 875 171 468 312 855 313 862 2 7 6 16 10 19 4 4
7 17 7 28 0 12 7 29 14 38 12 17 93 18 1322 21 720 1 1323 6 1339 10 17 4 48
13 70 18 218 58 428 237 529 452 88 188 97 476 21 642 -7 17 -19 43 -24 59
-21 53 -100 164 -163 229 -71 72 -173 142 -263 180 -55 23 -77 30 -170 54 -16
4 -483 9 -1037 10 -555 2 -1008 7 -1008 12 0 4 23 71 51 147 28 77 70 193 94
259 24 66 66 181 93 255 27 74 69 188 92 253 l43 117 1916 1 c1054 0 1933 2
1954 5 83 8 270 72 311 105 6 5 39 30 73 55 90 66 182 179 230 284 55 119 66
177 69 350 2 113 -2 186 -11 231 -66 311 -301 547 -612 614 -59 12 -380 14
-2398 12 l-2330 -2 -74 -23 c-295 -92 -500 -316 -557 -610 -8 -41 -14 -87 -14
-103 0 -24 -68 -231 -110 -334 -20 -50 -41 -106 -65 -175 -15 -41 -33 -91 -40
-110 -12 -29 -448 -1229 -477 -1312 l-10 -28 -553 0 -553 0 19 48 c10 26 41
108 68 182 27 74 88 243 136 375 48 132 105 288 125 346 21 58 61 166 88 240
27 74 73 199 101 279 29 80 65 179 81 220 44 116 141 383 145 400 2 8 9 29 15
45 7 17 32 84 55 150 24 66 82 224 128 351 47 127 92 251 101 275 8 24 29 82
46 129 18 47 49 132 70 190 120 336 212 588 220 605 4 11 13 34 18 50 6 17 26
73 45 125 136 373 196 542 208 590 23 91 18 299 -10 395 -40 142 -109 260
-213 367 -156 160 -358 244 -585 246 -56 0 -103 -1 -105 -3z"/>
</g>
</svg>
